<mxfile host="app.diagrams.net" agent="Mozilla/5.0 (Windows NT 10.0; Win64; x64) AppleWebKit/537.36 (KHTML, like Gecko) Chrome/129.0.0.0 Safari/537.36 Edg/129.0.0.0" version="24.7.16" pages="3">
  <diagram name="V3-TTI" id="n_-BP2Z6rM-4rdSZ633D">
    <mxGraphModel dx="1467" dy="806" grid="1" gridSize="10" guides="1" tooltips="1" connect="1" arrows="1" fold="1" page="1" pageScale="1" pageWidth="827" pageHeight="1169" math="0" shadow="0">
      <root>
        <mxCell id="0" />
        <mxCell id="1" parent="0" />
        <mxCell id="bnF_GTkMxTmzhYA7cZSp-13" style="edgeStyle=orthogonalEdgeStyle;rounded=0;orthogonalLoop=1;jettySize=auto;html=1;startArrow=none;startFill=0;endArrow=classic;endFill=1;strokeWidth=3;strokeColor=#736CA8;labelBackgroundColor=none;fontColor=default;fontSize=22;" parent="1" source="bnF_GTkMxTmzhYA7cZSp-1" target="bnF_GTkMxTmzhYA7cZSp-2" edge="1">
          <mxGeometry relative="1" as="geometry" />
        </mxCell>
        <mxCell id="BQy1X_OXweIhYbrGlqar-3" value="&lt;span style=&quot;color: rgb(26, 26, 26); font-size: 30px; background-color: rgb(251, 251, 251);&quot;&gt;UPDATE&lt;/span&gt;&lt;div&gt;&lt;span style=&quot;color: rgb(26, 26, 26); font-size: 30px; background-color: rgb(251, 251, 251);&quot;&gt;EVENT DATA&lt;/span&gt;&lt;/div&gt;" style="edgeLabel;html=1;align=center;verticalAlign=middle;resizable=0;points=[];fontSize=30;" parent="bnF_GTkMxTmzhYA7cZSp-13" vertex="1" connectable="0">
          <mxGeometry x="-0.0068" y="1" relative="1" as="geometry">
            <mxPoint as="offset" />
          </mxGeometry>
        </mxCell>
        <mxCell id="bnF_GTkMxTmzhYA7cZSp-16" style="edgeStyle=orthogonalEdgeStyle;rounded=0;orthogonalLoop=1;jettySize=auto;html=1;strokeWidth=3;strokeColor=#736CA8;labelBackgroundColor=none;fontColor=default;fontSize=22;" parent="1" source="bnF_GTkMxTmzhYA7cZSp-1" target="bnF_GTkMxTmzhYA7cZSp-10" edge="1">
          <mxGeometry relative="1" as="geometry">
            <Array as="points">
              <mxPoint x="432" y="40" />
              <mxPoint x="80" y="40" />
            </Array>
          </mxGeometry>
        </mxCell>
        <mxCell id="BQy1X_OXweIhYbrGlqar-2" value="&lt;span style=&quot;color: rgb(26, 26, 26); font-size: 30px; background-color: rgb(251, 251, 251);&quot;&gt;SEND&lt;/span&gt;&lt;div&gt;&lt;span style=&quot;color: rgb(26, 26, 26); font-size: 30px; background-color: rgb(251, 251, 251);&quot;&gt;FRAME&lt;/span&gt;&lt;/div&gt;" style="edgeLabel;html=1;align=center;verticalAlign=middle;resizable=0;points=[];fontSize=30;" parent="bnF_GTkMxTmzhYA7cZSp-16" vertex="1" connectable="0">
          <mxGeometry x="-0.0007" y="-2" relative="1" as="geometry">
            <mxPoint as="offset" />
          </mxGeometry>
        </mxCell>
        <mxCell id="bnF_GTkMxTmzhYA7cZSp-1" value="通信ミドル" style="verticalLabelPosition=bottom;html=1;verticalAlign=top;align=center;strokeColor=#D0CEE2;fillColor=#5D7F99;shape=mxgraph.azure.virtual_machine;fontSize=22;strokeWidth=3;labelBackgroundColor=none;fontColor=#1A1A1A;" parent="1" vertex="1">
          <mxGeometry x="402.23" y="81" width="100" height="70" as="geometry" />
        </mxCell>
        <mxCell id="bnF_GTkMxTmzhYA7cZSp-2" value="分析ミドル" style="verticalLabelPosition=bottom;html=1;verticalAlign=top;align=center;strokeColor=#D0CEE2;fillColor=#5D7F99;shape=mxgraph.azure.virtual_machine;fontSize=22;strokeWidth=3;labelBackgroundColor=none;fontColor=#1A1A1A;" parent="1" vertex="1">
          <mxGeometry x="830" y="81" width="100" height="70" as="geometry" />
        </mxCell>
        <mxCell id="bnF_GTkMxTmzhYA7cZSp-9" style="edgeStyle=orthogonalEdgeStyle;rounded=0;orthogonalLoop=1;jettySize=auto;html=1;strokeWidth=3;strokeColor=#736CA8;labelBackgroundColor=none;fontColor=default;fontSize=22;" parent="1" source="bnF_GTkMxTmzhYA7cZSp-8" target="bnF_GTkMxTmzhYA7cZSp-2" edge="1">
          <mxGeometry relative="1" as="geometry" />
        </mxCell>
        <mxCell id="BQy1X_OXweIhYbrGlqar-5" value="&lt;span style=&quot;color: rgb(26, 26, 26); font-size: 30px; background-color: rgb(251, 251, 251);&quot;&gt;GET&lt;/span&gt;&lt;div&gt;&lt;span style=&quot;color: rgb(26, 26, 26); font-size: 30px; background-color: rgb(251, 251, 251);&quot;&gt;EVENT DATA&lt;/span&gt;&lt;/div&gt;" style="edgeLabel;html=1;align=center;verticalAlign=middle;resizable=0;points=[];fontSize=30;" parent="bnF_GTkMxTmzhYA7cZSp-9" vertex="1" connectable="0">
          <mxGeometry x="0.0091" y="-1" relative="1" as="geometry">
            <mxPoint as="offset" />
          </mxGeometry>
        </mxCell>
        <mxCell id="bnF_GTkMxTmzhYA7cZSp-8" value="EVENT_DB" style="image;aspect=fixed;html=1;points=[];align=center;fontSize=22;image=img/lib/azure2/databases/Azure_Database_PostgreSQL_Server.svg;strokeWidth=3;fillColor=#5D7F99;strokeColor=#D0CEE2;labelBackgroundColor=none;fontColor=#1A1A1A;" parent="1" vertex="1">
          <mxGeometry x="1198" y="76" width="60" height="80" as="geometry" />
        </mxCell>
        <mxCell id="bnF_GTkMxTmzhYA7cZSp-10" value="DTS-D1/D2/G1" style="image;aspect=fixed;html=1;points=[];align=center;fontSize=22;image=img/lib/azure2/other/Connected_Vehicle_Platform.svg;strokeWidth=3;fillColor=#5D7F99;strokeColor=#D0CEE2;labelBackgroundColor=none;fontColor=#1A1A1A;" parent="1" vertex="1">
          <mxGeometry x="40" y="85.5" width="79.77" height="61" as="geometry" />
        </mxCell>
        <mxCell id="bnF_GTkMxTmzhYA7cZSp-12" style="edgeStyle=orthogonalEdgeStyle;rounded=0;orthogonalLoop=1;jettySize=auto;html=1;entryX=0;entryY=0.5;entryDx=0;entryDy=0;entryPerimeter=0;strokeWidth=3;strokeColor=#736CA8;labelBackgroundColor=none;fontColor=default;fontSize=22;" parent="1" source="bnF_GTkMxTmzhYA7cZSp-10" target="bnF_GTkMxTmzhYA7cZSp-1" edge="1">
          <mxGeometry relative="1" as="geometry" />
        </mxCell>
        <mxCell id="BQy1X_OXweIhYbrGlqar-1" value="&lt;span style=&quot;font-size: 30px;&quot;&gt;CONNECT/TCP&lt;/span&gt;" style="edgeLabel;html=1;align=center;verticalAlign=middle;resizable=0;points=[];fontSize=30;fontColor=#FFFFFF;labelBackgroundColor=#A680B8;" parent="bnF_GTkMxTmzhYA7cZSp-12" vertex="1" connectable="0">
          <mxGeometry x="0.0076" y="2" relative="1" as="geometry">
            <mxPoint x="-2" as="offset" />
          </mxGeometry>
        </mxCell>
        <mxCell id="3nwgfoT_hswRjVwzcz-u-1" style="edgeStyle=orthogonalEdgeStyle;rounded=0;orthogonalLoop=1;jettySize=auto;html=1;strokeColor=#736CA8;fontColor=default;strokeWidth=3;labelBackgroundColor=none;fontSize=22;" parent="1" source="bnF_GTkMxTmzhYA7cZSp-2" target="bnF_GTkMxTmzhYA7cZSp-1" edge="1">
          <mxGeometry relative="1" as="geometry">
            <mxPoint x="880" y="290" as="sourcePoint" />
            <mxPoint x="452.23" y="220" as="targetPoint" />
            <Array as="points">
              <mxPoint x="880" y="210" />
              <mxPoint x="450" y="210" />
            </Array>
          </mxGeometry>
        </mxCell>
        <mxCell id="BQy1X_OXweIhYbrGlqar-4" value="&lt;span style=&quot;color: rgb(26, 26, 26); font-size: 30px; background-color: rgb(251, 251, 251);&quot;&gt;SEND&lt;/span&gt;&lt;div&gt;&lt;span style=&quot;color: rgb(26, 26, 26); font-size: 30px; background-color: rgb(251, 251, 251);&quot;&gt;EVENT DATA&lt;/span&gt;&lt;/div&gt;" style="edgeLabel;html=1;align=center;verticalAlign=middle;resizable=0;points=[];fontSize=30;" parent="3nwgfoT_hswRjVwzcz-u-1" vertex="1" connectable="0">
          <mxGeometry x="-0.0036" relative="1" as="geometry">
            <mxPoint as="offset" />
          </mxGeometry>
        </mxCell>
        <mxCell id="q_5lCT05Onl2vClUrT04-1" style="edgeStyle=orthogonalEdgeStyle;rounded=1;orthogonalLoop=1;jettySize=auto;html=1;startArrow=none;startFill=0;endArrow=classic;endFill=1;strokeWidth=3;strokeColor=#736CA8;labelBackgroundColor=none;fontColor=default;fontSize=22;" parent="1" source="q_5lCT05Onl2vClUrT04-3" target="q_5lCT05Onl2vClUrT04-6" edge="1">
          <mxGeometry relative="1" as="geometry" />
        </mxCell>
        <mxCell id="q_5lCT05Onl2vClUrT04-2" value="&lt;span style=&quot;background-color: rgb(251, 251, 251); color: rgb(26, 26, 26);&quot;&gt;UPDATE&lt;/span&gt;&lt;div&gt;&lt;span style=&quot;background-color: rgb(251, 251, 251); color: rgb(26, 26, 26);&quot;&gt;EVENT DATA&lt;/span&gt;&lt;/div&gt;" style="edgeLabel;html=1;align=center;verticalAlign=middle;resizable=0;points=[];fontSize=30;" parent="q_5lCT05Onl2vClUrT04-1" vertex="1" connectable="0">
          <mxGeometry x="-0.0163" y="1" relative="1" as="geometry">
            <mxPoint as="offset" />
          </mxGeometry>
        </mxCell>
        <mxCell id="2zDPT6uKjCHDk1diIaB2-3" style="edgeStyle=orthogonalEdgeStyle;rounded=0;orthogonalLoop=1;jettySize=auto;html=1;fillColor=#e1d5e7;strokeColor=#9673a6;strokeWidth=2;" edge="1" parent="1" source="q_5lCT05Onl2vClUrT04-3" target="q_5lCT05Onl2vClUrT04-6">
          <mxGeometry relative="1" as="geometry">
            <Array as="points">
              <mxPoint x="394" y="550" />
              <mxPoint x="740" y="550" />
            </Array>
          </mxGeometry>
        </mxCell>
        <mxCell id="2zDPT6uKjCHDk1diIaB2-5" value="&lt;font color=&quot;#1a1a1a&quot;&gt;&lt;span style=&quot;font-size: 30px; background-color: rgb(251, 251, 251);&quot;&gt;REQUEST&lt;/span&gt;&lt;/font&gt;&lt;br&gt;&lt;div style=&quot;font-size: 30px;&quot;&gt;&lt;span style=&quot;background-color: rgb(251, 251, 251); color: rgb(26, 26, 26);&quot;&gt;EVENT DATA&lt;/span&gt;&lt;/div&gt;" style="edgeLabel;html=1;align=center;verticalAlign=middle;resizable=0;points=[];" vertex="1" connectable="0" parent="2zDPT6uKjCHDk1diIaB2-3">
          <mxGeometry x="-0.037" y="-2" relative="1" as="geometry">
            <mxPoint as="offset" />
          </mxGeometry>
        </mxCell>
        <mxCell id="q_5lCT05Onl2vClUrT04-3" value="通信ミドル" style="verticalLabelPosition=bottom;html=1;verticalAlign=top;align=center;strokeColor=#D0CEE2;fillColor=#5D7F99;shape=mxgraph.azure.virtual_machine;fontSize=22;strokeWidth=3;labelBackgroundColor=none;fontColor=#1A1A1A;rounded=1;" parent="1" vertex="1">
          <mxGeometry x="344" y="410" width="100" height="70" as="geometry" />
        </mxCell>
        <mxCell id="q_5lCT05Onl2vClUrT04-4" style="edgeStyle=orthogonalEdgeStyle;rounded=0;orthogonalLoop=1;jettySize=auto;html=1;strokeColor=#736CA8;strokeWidth=3;labelBackgroundColor=none;fontColor=default;curved=0;fontSize=22;" parent="1" source="q_5lCT05Onl2vClUrT04-6" target="q_5lCT05Onl2vClUrT04-13" edge="1">
          <mxGeometry relative="1" as="geometry">
            <Array as="points">
              <mxPoint x="740" y="301" />
            </Array>
          </mxGeometry>
        </mxCell>
        <mxCell id="q_5lCT05Onl2vClUrT04-5" value="&lt;span style=&quot;color: rgb(26, 26, 26); font-size: 30px; background-color: rgb(251, 251, 251);&quot;&gt;INFORM EVENT&lt;/span&gt;" style="edgeLabel;html=1;align=center;verticalAlign=middle;resizable=0;points=[];fontSize=30;" parent="q_5lCT05Onl2vClUrT04-4" vertex="1" connectable="0">
          <mxGeometry x="0.2958" y="-1" relative="1" as="geometry">
            <mxPoint as="offset" />
          </mxGeometry>
        </mxCell>
        <mxCell id="q_5lCT05Onl2vClUrT04-6" value="分析ミドル" style="verticalLabelPosition=bottom;html=1;verticalAlign=top;align=center;strokeColor=#D0CEE2;fillColor=#5D7F99;shape=mxgraph.azure.virtual_machine;fontSize=22;strokeWidth=3;labelBackgroundColor=none;fontColor=#1A1A1A;rounded=1;" parent="1" vertex="1">
          <mxGeometry x="690" y="410" width="100" height="70" as="geometry" />
        </mxCell>
        <mxCell id="q_5lCT05Onl2vClUrT04-7" style="edgeStyle=orthogonalEdgeStyle;rounded=1;orthogonalLoop=1;jettySize=auto;html=1;strokeWidth=3;strokeColor=#736CA8;labelBackgroundColor=none;fontColor=default;fontSize=22;" parent="1" source="q_5lCT05Onl2vClUrT04-9" target="q_5lCT05Onl2vClUrT04-6" edge="1">
          <mxGeometry relative="1" as="geometry" />
        </mxCell>
        <mxCell id="q_5lCT05Onl2vClUrT04-8" value="&lt;span style=&quot;color: rgb(26, 26, 26); font-size: 30px; background-color: rgb(251, 251, 251);&quot;&gt;GET&lt;/span&gt;&lt;div&gt;&lt;span style=&quot;color: rgb(26, 26, 26); font-size: 30px; background-color: rgb(251, 251, 251);&quot;&gt;EVENT DATA&lt;/span&gt;&lt;/div&gt;" style="edgeLabel;html=1;align=center;verticalAlign=middle;resizable=0;points=[];fontSize=30;" parent="q_5lCT05Onl2vClUrT04-7" vertex="1" connectable="0">
          <mxGeometry x="-0.0254" y="-2" relative="1" as="geometry">
            <mxPoint as="offset" />
          </mxGeometry>
        </mxCell>
        <mxCell id="q_5lCT05Onl2vClUrT04-9" value="EVENT_DB" style="image;aspect=fixed;html=1;points=[];align=center;fontSize=22;image=img/lib/azure2/databases/Azure_Database_PostgreSQL_Server.svg;strokeWidth=3;fillColor=#5D7F99;strokeColor=#D0CEE2;labelBackgroundColor=none;fontColor=#1A1A1A;rounded=1;" parent="1" vertex="1">
          <mxGeometry x="1074" y="405" width="60" height="80" as="geometry" />
        </mxCell>
        <mxCell id="q_5lCT05Onl2vClUrT04-10" value="ISUZU" style="image;aspect=fixed;html=1;points=[];align=center;fontSize=22;image=img/lib/azure2/other/Connected_Vehicle_Platform.svg;strokeWidth=3;fillColor=#5D7F99;strokeColor=#D0CEE2;labelBackgroundColor=none;fontColor=#1A1A1A;rounded=1;" parent="1" vertex="1">
          <mxGeometry x="40" y="414.5" width="79.77" height="61" as="geometry" />
        </mxCell>
        <mxCell id="q_5lCT05Onl2vClUrT04-11" style="edgeStyle=orthogonalEdgeStyle;rounded=1;orthogonalLoop=1;jettySize=auto;html=1;entryX=0;entryY=0.5;entryDx=0;entryDy=0;entryPerimeter=0;strokeWidth=3;strokeColor=#736CA8;labelBackgroundColor=none;fontColor=default;fontSize=22;" parent="1" source="q_5lCT05Onl2vClUrT04-10" target="q_5lCT05Onl2vClUrT04-3" edge="1">
          <mxGeometry relative="1" as="geometry" />
        </mxCell>
        <mxCell id="q_5lCT05Onl2vClUrT04-12" value="&lt;span style=&quot;font-size: 30px;&quot;&gt;CONNECT/HTTP&lt;/span&gt;" style="edgeLabel;html=1;align=center;verticalAlign=middle;resizable=0;points=[];fontSize=30;fontColor=#FFFFFF;labelBackgroundColor=#A680B8;" parent="q_5lCT05Onl2vClUrT04-11" vertex="1" connectable="0">
          <mxGeometry x="0.0109" relative="1" as="geometry">
            <mxPoint as="offset" />
          </mxGeometry>
        </mxCell>
        <mxCell id="q_5lCT05Onl2vClUrT04-13" value="" style="dashed=0;outlineConnect=0;html=1;align=center;labelPosition=center;verticalLabelPosition=bottom;verticalAlign=top;shape=mxgraph.webicons.sms;fillColor=#5D7F99;labelBackgroundColor=none;strokeColor=#D0CEE2;fontColor=#1A1A1A;rounded=1;fontSize=22;" parent="1" vertex="1">
          <mxGeometry x="352.8" y="260" width="82.4" height="82.4" as="geometry" />
        </mxCell>
        <mxCell id="q_5lCT05Onl2vClUrT04-14" style="edgeStyle=orthogonalEdgeStyle;rounded=0;orthogonalLoop=1;jettySize=auto;html=1;strokeColor=#736CA8;strokeWidth=3;labelBackgroundColor=none;fontColor=default;curved=0;fontSize=22;" parent="1" source="q_5lCT05Onl2vClUrT04-13" target="q_5lCT05Onl2vClUrT04-10" edge="1">
          <mxGeometry relative="1" as="geometry">
            <Array as="points">
              <mxPoint x="80" y="300" />
            </Array>
          </mxGeometry>
        </mxCell>
        <mxCell id="q_5lCT05Onl2vClUrT04-15" value="&lt;span style=&quot;color: rgb(26, 26, 26); font-size: 30px; background-color: rgb(251, 251, 251);&quot;&gt;INFORM&lt;/span&gt;&lt;div&gt;&lt;span style=&quot;color: rgb(26, 26, 26); font-size: 30px; background-color: rgb(251, 251, 251);&quot;&gt;EVENT&lt;/span&gt;&lt;/div&gt;" style="edgeLabel;html=1;align=center;verticalAlign=middle;resizable=0;points=[];fontSize=30;" parent="q_5lCT05Onl2vClUrT04-14" vertex="1" connectable="0">
          <mxGeometry x="-0.4206" y="-1" relative="1" as="geometry">
            <mxPoint as="offset" />
          </mxGeometry>
        </mxCell>
      </root>
    </mxGraphModel>
  </diagram>
  <diagram id="DDAeKijsnJYqkCSE0EXT" name="V3-ISUZU">
    <mxGraphModel dx="1386" dy="806" grid="1" gridSize="10" guides="1" tooltips="1" connect="1" arrows="1" fold="1" page="1" pageScale="1" pageWidth="827" pageHeight="1169" math="0" shadow="0">
      <root>
        <mxCell id="0" />
        <mxCell id="1" parent="0" />
        <mxCell id="71qHSc86nhLidYFrZ0Hx-1" style="edgeStyle=orthogonalEdgeStyle;rounded=1;orthogonalLoop=1;jettySize=auto;html=1;startArrow=none;startFill=0;endArrow=classic;endFill=1;strokeWidth=3;strokeColor=#736CA8;labelBackgroundColor=none;fontColor=default;" parent="1" source="71qHSc86nhLidYFrZ0Hx-3" target="71qHSc86nhLidYFrZ0Hx-4" edge="1">
          <mxGeometry relative="1" as="geometry" />
        </mxCell>
        <mxCell id="hnUC-xHkSyoxEst1gzkh-5" value="&lt;span style=&quot;color: rgb(26, 26, 26); font-size: 16px; background-color: rgb(251, 251, 251);&quot;&gt;REQ EVENT DATA&lt;/span&gt;" style="edgeLabel;html=1;align=center;verticalAlign=middle;resizable=0;points=[];" vertex="1" connectable="0" parent="71qHSc86nhLidYFrZ0Hx-1">
          <mxGeometry x="-0.0163" y="1" relative="1" as="geometry">
            <mxPoint as="offset" />
          </mxGeometry>
        </mxCell>
        <mxCell id="71qHSc86nhLidYFrZ0Hx-3" value="通信ミドル" style="verticalLabelPosition=bottom;html=1;verticalAlign=top;align=center;strokeColor=#D0CEE2;fillColor=#5D7F99;shape=mxgraph.azure.virtual_machine;fontSize=16;strokeWidth=3;labelBackgroundColor=none;fontColor=#1A1A1A;rounded=1;" parent="1" vertex="1">
          <mxGeometry x="454" y="280" width="100" height="70" as="geometry" />
        </mxCell>
        <mxCell id="t9agoga5QZjk2vCG1AxP-9" style="edgeStyle=orthogonalEdgeStyle;rounded=1;orthogonalLoop=1;jettySize=auto;html=1;strokeColor=#736CA8;strokeWidth=3;labelBackgroundColor=none;fontColor=default;" parent="1" source="71qHSc86nhLidYFrZ0Hx-4" target="t9agoga5QZjk2vCG1AxP-8" edge="1">
          <mxGeometry relative="1" as="geometry">
            <Array as="points">
              <mxPoint x="850" y="150" />
            </Array>
          </mxGeometry>
        </mxCell>
        <mxCell id="hnUC-xHkSyoxEst1gzkh-3" value="&lt;span style=&quot;color: rgb(26, 26, 26); font-size: 16px; background-color: rgb(251, 251, 251);&quot;&gt;INFORM EVENT&lt;/span&gt;" style="edgeLabel;html=1;align=center;verticalAlign=middle;resizable=0;points=[];" vertex="1" connectable="0" parent="t9agoga5QZjk2vCG1AxP-9">
          <mxGeometry x="0.2958" y="-1" relative="1" as="geometry">
            <mxPoint as="offset" />
          </mxGeometry>
        </mxCell>
        <mxCell id="71qHSc86nhLidYFrZ0Hx-4" value="分析ミドル" style="verticalLabelPosition=bottom;html=1;verticalAlign=top;align=center;strokeColor=#D0CEE2;fillColor=#5D7F99;shape=mxgraph.azure.virtual_machine;fontSize=16;strokeWidth=3;labelBackgroundColor=none;fontColor=#1A1A1A;rounded=1;" parent="1" vertex="1">
          <mxGeometry x="800" y="280" width="100" height="70" as="geometry" />
        </mxCell>
        <mxCell id="71qHSc86nhLidYFrZ0Hx-5" style="edgeStyle=orthogonalEdgeStyle;rounded=1;orthogonalLoop=1;jettySize=auto;html=1;strokeWidth=3;strokeColor=#736CA8;labelBackgroundColor=none;fontColor=default;" parent="1" source="71qHSc86nhLidYFrZ0Hx-6" target="71qHSc86nhLidYFrZ0Hx-4" edge="1">
          <mxGeometry relative="1" as="geometry" />
        </mxCell>
        <mxCell id="hnUC-xHkSyoxEst1gzkh-6" value="&lt;span style=&quot;color: rgb(26, 26, 26); font-size: 16px; background-color: rgb(251, 251, 251);&quot;&gt;GET EVENT DATA&lt;/span&gt;" style="edgeLabel;html=1;align=center;verticalAlign=middle;resizable=0;points=[];" vertex="1" connectable="0" parent="71qHSc86nhLidYFrZ0Hx-5">
          <mxGeometry x="-0.0254" y="-2" relative="1" as="geometry">
            <mxPoint as="offset" />
          </mxGeometry>
        </mxCell>
        <mxCell id="71qHSc86nhLidYFrZ0Hx-6" value="EVENT_DB" style="image;aspect=fixed;html=1;points=[];align=center;fontSize=16;image=img/lib/azure2/databases/Azure_Database_PostgreSQL_Server.svg;strokeWidth=3;fillColor=#5D7F99;strokeColor=#D0CEE2;labelBackgroundColor=none;fontColor=#1A1A1A;rounded=1;" parent="1" vertex="1">
          <mxGeometry x="1136" y="275" width="60" height="80" as="geometry" />
        </mxCell>
        <mxCell id="71qHSc86nhLidYFrZ0Hx-7" value="ISUZU" style="image;aspect=fixed;html=1;points=[];align=center;fontSize=16;image=img/lib/azure2/other/Connected_Vehicle_Platform.svg;strokeWidth=3;fillColor=#5D7F99;strokeColor=#D0CEE2;labelBackgroundColor=none;fontColor=#1A1A1A;rounded=1;" parent="1" vertex="1">
          <mxGeometry x="170" y="284.5" width="79.77" height="61" as="geometry" />
        </mxCell>
        <mxCell id="71qHSc86nhLidYFrZ0Hx-8" style="edgeStyle=orthogonalEdgeStyle;rounded=1;orthogonalLoop=1;jettySize=auto;html=1;entryX=0;entryY=0.5;entryDx=0;entryDy=0;entryPerimeter=0;strokeWidth=3;strokeColor=#736CA8;labelBackgroundColor=none;fontColor=default;" parent="1" source="71qHSc86nhLidYFrZ0Hx-7" target="71qHSc86nhLidYFrZ0Hx-3" edge="1">
          <mxGeometry relative="1" as="geometry" />
        </mxCell>
        <mxCell id="hnUC-xHkSyoxEst1gzkh-4" value="&lt;span style=&quot;color: rgb(26, 26, 26); font-size: 16px; background-color: rgb(251, 251, 251);&quot;&gt;CONNECT/HTTP&lt;/span&gt;" style="edgeLabel;html=1;align=center;verticalAlign=middle;resizable=0;points=[];" vertex="1" connectable="0" parent="71qHSc86nhLidYFrZ0Hx-8">
          <mxGeometry x="0.0109" relative="1" as="geometry">
            <mxPoint as="offset" />
          </mxGeometry>
        </mxCell>
        <mxCell id="t9agoga5QZjk2vCG1AxP-8" value="" style="dashed=0;outlineConnect=0;html=1;align=center;labelPosition=center;verticalLabelPosition=bottom;verticalAlign=top;shape=mxgraph.webicons.sms;fillColor=#5D7F99;labelBackgroundColor=none;strokeColor=#D0CEE2;fontColor=#1A1A1A;rounded=1;" parent="1" vertex="1">
          <mxGeometry x="430" y="100" width="102.4" height="102.4" as="geometry" />
        </mxCell>
        <mxCell id="t9agoga5QZjk2vCG1AxP-10" style="edgeStyle=orthogonalEdgeStyle;rounded=1;orthogonalLoop=1;jettySize=auto;html=1;entryX=0;entryY=0.582;entryDx=0;entryDy=0;entryPerimeter=0;strokeColor=#736CA8;strokeWidth=3;labelBackgroundColor=none;fontColor=default;" parent="1" source="t9agoga5QZjk2vCG1AxP-8" target="71qHSc86nhLidYFrZ0Hx-7" edge="1">
          <mxGeometry relative="1" as="geometry">
            <Array as="points">
              <mxPoint x="110" y="151" />
              <mxPoint x="110" y="320" />
            </Array>
          </mxGeometry>
        </mxCell>
        <mxCell id="hnUC-xHkSyoxEst1gzkh-2" value="&lt;span style=&quot;color: rgb(26, 26, 26); font-size: 16px; background-color: rgb(251, 251, 251);&quot;&gt;INFORM EVENT&lt;/span&gt;" style="edgeLabel;html=1;align=center;verticalAlign=middle;resizable=0;points=[];" vertex="1" connectable="0" parent="t9agoga5QZjk2vCG1AxP-10">
          <mxGeometry x="-0.4206" y="-1" relative="1" as="geometry">
            <mxPoint as="offset" />
          </mxGeometry>
        </mxCell>
      </root>
    </mxGraphModel>
  </diagram>
  <diagram id="ljmRO6rFjo8l1jXLBo1G" name="MQTT+HTTP">
    <mxGraphModel dx="1467" dy="806" grid="1" gridSize="10" guides="1" tooltips="1" connect="1" arrows="1" fold="1" page="1" pageScale="1" pageWidth="827" pageHeight="1169" math="0" shadow="0">
      <root>
        <mxCell id="0" />
        <mxCell id="1" parent="0" />
        <mxCell id="wl3WMXJQGJGkQpaOGLGE-1" style="rounded=0;orthogonalLoop=1;jettySize=auto;html=1;labelBackgroundColor=none;strokeColor=#736CA8;fontColor=default;strokeWidth=2;fontSize=22;" parent="1" source="wl3WMXJQGJGkQpaOGLGE-3" target="wl3WMXJQGJGkQpaOGLGE-13" edge="1">
          <mxGeometry relative="1" as="geometry" />
        </mxCell>
        <mxCell id="wl3WMXJQGJGkQpaOGLGE-2" value="connect/HTTP" style="edgeLabel;html=1;align=center;verticalAlign=middle;resizable=0;points=[];strokeColor=#D0CEE2;fontColor=#FFFFFF;fillColor=#5D7F99;fontSize=30;labelBackgroundColor=#A680B8;" parent="wl3WMXJQGJGkQpaOGLGE-1" vertex="1" connectable="0">
          <mxGeometry x="-0.0035" y="1" relative="1" as="geometry">
            <mxPoint x="1" as="offset" />
          </mxGeometry>
        </mxCell>
        <mxCell id="wl3WMXJQGJGkQpaOGLGE-3" value="DTS-G2" style="image;aspect=fixed;html=1;points=[];align=center;fontSize=22;image=img/lib/azure2/other/Connected_Vehicle_Platform.svg;shadow=0;labelBackgroundColor=none;fillColor=#5D7F99;strokeColor=#D0CEE2;fontColor=#1A1A1A;" parent="1" vertex="1">
          <mxGeometry x="60" y="233" width="68" height="52" as="geometry" />
        </mxCell>
        <mxCell id="wl3WMXJQGJGkQpaOGLGE-4" style="edgeStyle=orthogonalEdgeStyle;rounded=0;orthogonalLoop=1;jettySize=auto;html=1;elbow=vertical;labelBackgroundColor=none;strokeColor=#736CA8;fontColor=default;startArrow=none;startFill=0;strokeWidth=2;endArrow=classic;endFill=1;fontSize=22;" parent="1" source="wl3WMXJQGJGkQpaOGLGE-8" target="wl3WMXJQGJGkQpaOGLGE-13" edge="1">
          <mxGeometry relative="1" as="geometry">
            <Array as="points">
              <mxPoint x="509" y="195" />
              <mxPoint x="509" y="195" />
            </Array>
          </mxGeometry>
        </mxCell>
        <mxCell id="wl3WMXJQGJGkQpaOGLGE-5" value="inform&lt;div&gt;event message&lt;/div&gt;" style="edgeLabel;html=1;align=center;verticalAlign=middle;resizable=0;points=[];strokeColor=#D0CEE2;fontColor=#1A1A1A;fillColor=#5D7F99;fontSize=30;" parent="wl3WMXJQGJGkQpaOGLGE-4" vertex="1" connectable="0">
          <mxGeometry x="-0.0078" relative="1" as="geometry">
            <mxPoint y="67" as="offset" />
          </mxGeometry>
        </mxCell>
        <mxCell id="wl3WMXJQGJGkQpaOGLGE-6" style="edgeStyle=orthogonalEdgeStyle;rounded=0;orthogonalLoop=1;jettySize=auto;html=1;fillColor=#e1d5e7;strokeColor=#9673a6;strokeWidth=2;fontSize=22;" parent="1" source="wl3WMXJQGJGkQpaOGLGE-8" target="wl3WMXJQGJGkQpaOGLGE-33" edge="1">
          <mxGeometry relative="1" as="geometry">
            <Array as="points">
              <mxPoint x="509" y="270" />
            </Array>
          </mxGeometry>
        </mxCell>
        <mxCell id="wl3WMXJQGJGkQpaOGLGE-7" value="&lt;span style=&quot;color: rgb(26, 26, 26); font-size: 30px;&quot;&gt;inform&lt;/span&gt;&lt;div&gt;&lt;span style=&quot;color: rgb(26, 26, 26); font-size: 30px;&quot;&gt;event message&lt;/span&gt;&lt;/div&gt;" style="edgeLabel;html=1;align=center;verticalAlign=middle;resizable=0;points=[];fontSize=30;" parent="wl3WMXJQGJGkQpaOGLGE-6" vertex="1" connectable="0">
          <mxGeometry x="0.3212" relative="1" as="geometry">
            <mxPoint as="offset" />
          </mxGeometry>
        </mxCell>
        <mxCell id="wl3WMXJQGJGkQpaOGLGE-8" value="MQTT Broker" style="sketch=0;outlineConnect=0;fontColor=#1A1A1A;fillColor=#5D7F99;strokeColor=none;dashed=0;verticalLabelPosition=bottom;verticalAlign=top;align=center;html=1;fontSize=22;fontStyle=0;aspect=fixed;pointerEvents=1;shape=mxgraph.aws4.mq_broker;labelBackgroundColor=none;" parent="1" vertex="1">
          <mxGeometry x="470" y="115" width="78" height="69" as="geometry" />
        </mxCell>
        <mxCell id="wl3WMXJQGJGkQpaOGLGE-9" style="edgeStyle=orthogonalEdgeStyle;rounded=0;orthogonalLoop=1;jettySize=auto;html=1;labelBackgroundColor=none;strokeColor=#736CA8;fontColor=default;strokeWidth=2;fontSize=22;" parent="1" source="wl3WMXJQGJGkQpaOGLGE-13" target="wl3WMXJQGJGkQpaOGLGE-20" edge="1">
          <mxGeometry relative="1" as="geometry" />
        </mxCell>
        <mxCell id="wl3WMXJQGJGkQpaOGLGE-10" value="update&lt;div&gt;event data&lt;/div&gt;" style="edgeLabel;html=1;align=center;verticalAlign=middle;resizable=0;points=[];strokeColor=#D0CEE2;fontColor=#1A1A1A;fillColor=#5D7F99;fontSize=30;" parent="wl3WMXJQGJGkQpaOGLGE-9" vertex="1" connectable="0">
          <mxGeometry x="-0.0042" y="1" relative="1" as="geometry">
            <mxPoint as="offset" />
          </mxGeometry>
        </mxCell>
        <mxCell id="wl3WMXJQGJGkQpaOGLGE-11" style="edgeStyle=orthogonalEdgeStyle;rounded=0;orthogonalLoop=1;jettySize=auto;html=1;fontColor=default;strokeWidth=2;startArrow=none;startFill=0;endArrow=classic;endFill=1;labelBackgroundColor=none;fillColor=#f8cecc;strokeColor=#b85450;fontSize=22;" parent="1" source="wl3WMXJQGJGkQpaOGLGE-13" target="wl3WMXJQGJGkQpaOGLGE-8" edge="1">
          <mxGeometry relative="1" as="geometry">
            <mxPoint x="509" y="195" as="targetPoint" />
            <Array as="points">
              <mxPoint x="629" y="479" />
              <mxPoint x="629" y="149" />
            </Array>
          </mxGeometry>
        </mxCell>
        <mxCell id="wl3WMXJQGJGkQpaOGLGE-12" value="subscribe&lt;div&gt;topic/MQTT&lt;/div&gt;" style="edgeLabel;html=1;align=center;verticalAlign=middle;resizable=0;points=[];strokeColor=#D0CEE2;fontColor=#FFFFFF;fillColor=#5D7F99;fontSize=30;labelBackgroundColor=#EA6B66;" parent="wl3WMXJQGJGkQpaOGLGE-11" vertex="1" connectable="0">
          <mxGeometry x="-0.0064" relative="1" as="geometry">
            <mxPoint x="-1" y="-47" as="offset" />
          </mxGeometry>
        </mxCell>
        <mxCell id="wl3WMXJQGJGkQpaOGLGE-13" value="アダプト" style="sketch=0;outlineConnect=0;fontColor=#1A1A1A;strokeColor=#D0CEE2;fillColor=#5D7F99;dashed=0;verticalLabelPosition=middle;verticalAlign=bottom;align=center;html=1;whiteSpace=wrap;fontSize=22;fontStyle=0;spacing=3;shape=mxgraph.aws4.productIcon;prIcon=mxgraph.aws4.ecs;labelBackgroundColor=none;" parent="1" vertex="1">
          <mxGeometry x="469" y="424" width="101" height="136" as="geometry" />
        </mxCell>
        <mxCell id="wl3WMXJQGJGkQpaOGLGE-14" style="rounded=0;orthogonalLoop=1;jettySize=auto;html=1;endArrow=classic;endFill=1;startArrow=none;startFill=0;labelBackgroundColor=none;strokeColor=#736CA8;fontColor=default;strokeWidth=2;fontSize=22;" parent="1" source="wl3WMXJQGJGkQpaOGLGE-16" target="wl3WMXJQGJGkQpaOGLGE-13" edge="1">
          <mxGeometry relative="1" as="geometry" />
        </mxCell>
        <mxCell id="wl3WMXJQGJGkQpaOGLGE-15" value="connect/HTTP" style="edgeLabel;html=1;align=center;verticalAlign=middle;resizable=0;points=[];strokeColor=#D0CEE2;fontColor=#FFFFFF;fillColor=#5D7F99;fontSize=30;labelBackgroundColor=#A680B8;" parent="wl3WMXJQGJGkQpaOGLGE-14" vertex="1" connectable="0">
          <mxGeometry relative="1" as="geometry">
            <mxPoint as="offset" />
          </mxGeometry>
        </mxCell>
        <mxCell id="wl3WMXJQGJGkQpaOGLGE-16" value="ISUZU" style="image;aspect=fixed;html=1;points=[];align=center;fontSize=22;image=img/lib/azure2/other/Connected_Vehicle_Platform.svg;shadow=0;labelBackgroundColor=none;fillColor=#5D7F99;strokeColor=#D0CEE2;fontColor=#1A1A1A;" parent="1" vertex="1">
          <mxGeometry x="60" y="389" width="68" height="52" as="geometry" />
        </mxCell>
        <mxCell id="wl3WMXJQGJGkQpaOGLGE-17" style="edgeStyle=none;rounded=0;orthogonalLoop=1;jettySize=auto;html=1;labelBackgroundColor=none;strokeColor=#736CA8;fontColor=default;strokeWidth=2;fontSize=22;" parent="1" source="wl3WMXJQGJGkQpaOGLGE-19" target="wl3WMXJQGJGkQpaOGLGE-13" edge="1">
          <mxGeometry relative="1" as="geometry" />
        </mxCell>
        <mxCell id="wl3WMXJQGJGkQpaOGLGE-18" value="connect/TCP" style="edgeLabel;html=1;align=center;verticalAlign=middle;resizable=0;points=[];strokeColor=#D0CEE2;fontColor=#FFFFFF;fillColor=#5D7F99;fontSize=30;labelBackgroundColor=#A680B8;" parent="wl3WMXJQGJGkQpaOGLGE-17" vertex="1" connectable="0">
          <mxGeometry x="-0.0041" y="2" relative="1" as="geometry">
            <mxPoint as="offset" />
          </mxGeometry>
        </mxCell>
        <mxCell id="wl3WMXJQGJGkQpaOGLGE-19" value="DTS-D1/D2/G1" style="image;aspect=fixed;html=1;points=[];align=center;fontSize=22;image=img/lib/azure2/other/Connected_Vehicle_Platform.svg;shadow=0;labelBackgroundColor=none;fillColor=#5D7F99;strokeColor=#D0CEE2;fontColor=#1A1A1A;" parent="1" vertex="1">
          <mxGeometry x="60" y="554" width="68" height="52" as="geometry" />
        </mxCell>
        <mxCell id="wl3WMXJQGJGkQpaOGLGE-20" value="&lt;div style=&quot;font-size: 22px;&quot;&gt;コア&lt;/div&gt;" style="sketch=0;outlineConnect=0;fontColor=#1A1A1A;strokeColor=#D0CEE2;fillColor=#5D7F99;dashed=0;verticalLabelPosition=middle;verticalAlign=bottom;align=center;html=1;whiteSpace=wrap;fontSize=22;fontStyle=0;spacing=3;shape=mxgraph.aws4.productIcon;prIcon=mxgraph.aws4.ecs;labelBackgroundColor=none;" parent="1" vertex="1">
          <mxGeometry x="1076.5" y="437" width="80" height="110" as="geometry" />
        </mxCell>
        <mxCell id="wl3WMXJQGJGkQpaOGLGE-21" style="edgeStyle=orthogonalEdgeStyle;rounded=0;orthogonalLoop=1;jettySize=auto;html=1;strokeColor=#736CA8;fontColor=#1A1A1A;strokeWidth=2;fontSize=22;" parent="1" source="wl3WMXJQGJGkQpaOGLGE-23" target="wl3WMXJQGJGkQpaOGLGE-26" edge="1">
          <mxGeometry relative="1" as="geometry" />
        </mxCell>
        <mxCell id="wl3WMXJQGJGkQpaOGLGE-22" value="get&lt;div&gt;event data&lt;/div&gt;" style="edgeLabel;html=1;align=center;verticalAlign=middle;resizable=0;points=[];strokeColor=#D0CEE2;fontColor=#1A1A1A;fillColor=#5D7F99;fontSize=30;" parent="wl3WMXJQGJGkQpaOGLGE-21" vertex="1" connectable="0">
          <mxGeometry x="-0.0169" relative="1" as="geometry">
            <mxPoint as="offset" />
          </mxGeometry>
        </mxCell>
        <mxCell id="wl3WMXJQGJGkQpaOGLGE-23" value="EVENT_DB" style="sketch=0;outlineConnect=0;fontColor=#1A1A1A;strokeColor=#D0CEE2;fillColor=#5D7F99;dashed=0;verticalLabelPosition=middle;verticalAlign=bottom;align=center;html=1;whiteSpace=wrap;fontSize=22;fontStyle=0;spacing=3;shape=mxgraph.aws4.productIcon;prIcon=mxgraph.aws4.aurora;labelBackgroundColor=none;" parent="1" vertex="1">
          <mxGeometry x="1057" y="94.5" width="119" height="155.5" as="geometry" />
        </mxCell>
        <mxCell id="wl3WMXJQGJGkQpaOGLGE-24" style="edgeStyle=elbowEdgeStyle;rounded=0;orthogonalLoop=1;jettySize=auto;elbow=horizontal;html=1;labelBackgroundColor=none;strokeColor=#736CA8;fontColor=default;strokeWidth=2;fontSize=22;" parent="1" source="wl3WMXJQGJGkQpaOGLGE-26" target="wl3WMXJQGJGkQpaOGLGE-8" edge="1">
          <mxGeometry relative="1" as="geometry">
            <Array as="points">
              <mxPoint x="619" y="40" />
            </Array>
          </mxGeometry>
        </mxCell>
        <mxCell id="wl3WMXJQGJGkQpaOGLGE-25" value="push&lt;div&gt;event message&lt;/div&gt;" style="edgeLabel;html=1;align=center;verticalAlign=middle;resizable=0;points=[];strokeColor=#D0CEE2;fontColor=#1A1A1A;fillColor=#5D7F99;fontSize=30;" parent="wl3WMXJQGJGkQpaOGLGE-24" vertex="1" connectable="0">
          <mxGeometry x="0.1913" y="-1" relative="1" as="geometry">
            <mxPoint x="49" y="1" as="offset" />
          </mxGeometry>
        </mxCell>
        <mxCell id="wl3WMXJQGJGkQpaOGLGE-26" value="&lt;div style=&quot;font-size: 22px;&quot;&gt;バッチ&lt;/div&gt;" style="sketch=0;outlineConnect=0;fontColor=#1A1A1A;strokeColor=#D0CEE2;fillColor=#5D7F99;dashed=0;verticalLabelPosition=middle;verticalAlign=bottom;align=center;html=1;whiteSpace=wrap;fontSize=22;fontStyle=0;spacing=3;shape=mxgraph.aws4.productIcon;prIcon=mxgraph.aws4.ecs;labelBackgroundColor=none;" parent="1" vertex="1">
          <mxGeometry x="754" y="117.25" width="80" height="110" as="geometry" />
        </mxCell>
        <mxCell id="wl3WMXJQGJGkQpaOGLGE-27" style="edgeStyle=orthogonalEdgeStyle;rounded=0;orthogonalLoop=1;jettySize=auto;html=1;entryX=1;entryY=0.596;entryDx=0;entryDy=0;entryPerimeter=0;strokeColor=#736CA8;fontColor=#1A1A1A;strokeWidth=2;fontSize=22;" parent="1" source="wl3WMXJQGJGkQpaOGLGE-13" target="wl3WMXJQGJGkQpaOGLGE-19" edge="1">
          <mxGeometry relative="1" as="geometry">
            <Array as="points">
              <mxPoint x="509" y="585" />
            </Array>
          </mxGeometry>
        </mxCell>
        <mxCell id="wl3WMXJQGJGkQpaOGLGE-28" value="send&lt;div&gt;event data&lt;/div&gt;" style="edgeLabel;html=1;align=center;verticalAlign=middle;resizable=0;points=[];strokeColor=#D0CEE2;fontColor=#1A1A1A;fillColor=#5D7F99;fontSize=30;" parent="wl3WMXJQGJGkQpaOGLGE-27" vertex="1" connectable="0">
          <mxGeometry x="0.1388" relative="1" as="geometry">
            <mxPoint y="21" as="offset" />
          </mxGeometry>
        </mxCell>
        <mxCell id="wl3WMXJQGJGkQpaOGLGE-29" style="edgeStyle=orthogonalEdgeStyle;rounded=0;orthogonalLoop=1;jettySize=auto;html=1;entryX=0.5;entryY=1.05;entryDx=0;entryDy=0;entryPerimeter=0;strokeColor=#736CA8;fontColor=#1A1A1A;strokeWidth=2;fontSize=22;" parent="1" source="wl3WMXJQGJGkQpaOGLGE-20" target="wl3WMXJQGJGkQpaOGLGE-23" edge="1">
          <mxGeometry relative="1" as="geometry" />
        </mxCell>
        <mxCell id="wl3WMXJQGJGkQpaOGLGE-30" value="update&lt;div&gt;event data&lt;/div&gt;" style="edgeLabel;html=1;align=center;verticalAlign=middle;resizable=0;points=[];strokeColor=#D0CEE2;fontColor=#1A1A1A;fillColor=#5D7F99;fontSize=30;" parent="1" vertex="1" connectable="0">
          <mxGeometry x="1097" y="320" as="geometry" />
        </mxCell>
        <mxCell id="wl3WMXJQGJGkQpaOGLGE-31" style="edgeStyle=orthogonalEdgeStyle;rounded=0;orthogonalLoop=1;jettySize=auto;html=1;fillColor=#f8cecc;strokeColor=#b85450;strokeWidth=2;fontSize=22;" parent="1" source="wl3WMXJQGJGkQpaOGLGE-33" target="wl3WMXJQGJGkQpaOGLGE-8" edge="1">
          <mxGeometry relative="1" as="geometry">
            <Array as="points">
              <mxPoint x="94" y="150" />
            </Array>
          </mxGeometry>
        </mxCell>
        <mxCell id="wl3WMXJQGJGkQpaOGLGE-32" value="&lt;font style=&quot;font-size: 30px;&quot;&gt;subscribe&lt;/font&gt;&lt;div&gt;&lt;font style=&quot;font-size: 30px;&quot;&gt;topic/MQTT&lt;/font&gt;&lt;/div&gt;" style="edgeLabel;html=1;align=center;verticalAlign=middle;resizable=0;points=[];fontSize=30;fontColor=#FFFFFF;labelBackgroundColor=#EA6B66;" parent="wl3WMXJQGJGkQpaOGLGE-31" vertex="1" connectable="0">
          <mxGeometry x="0.1935" relative="1" as="geometry">
            <mxPoint as="offset" />
          </mxGeometry>
        </mxCell>
        <mxCell id="wl3WMXJQGJGkQpaOGLGE-33" value="" style="whiteSpace=wrap;html=1;fillColor=none;strokeColor=#9673a6;strokeWidth=3;dashed=1;fontSize=22;" parent="1" vertex="1">
          <mxGeometry x="34" y="220" width="120" height="260" as="geometry" />
        </mxCell>
      </root>
    </mxGraphModel>
  </diagram>
</mxfile>
